<?xml version="1.0" encoding="UTF-8" standalone="no"?>
<!-- Created with Inkscape (http://www.inkscape.org/) -->

<svg
   version="1.1"
   id="svg1"
   width="928.36029"
   height="234.40852"
   viewBox="0 0 928.36029 234.40852"
   sodipodi:docname="Rimas-Logo_1000x750.svg"
   inkscape:version="1.4.2 (f4327f4, 2025-05-13)"
   xmlns:inkscape="http://www.inkscape.org/namespaces/inkscape"
   xmlns:sodipodi="http://sodipodi.sourceforge.net/DTD/sodipodi-0.dtd"
   xmlns="http://www.w3.org/2000/svg"
   xmlns:svg="http://www.w3.org/2000/svg">
  <defs
     id="defs1" />
  <sodipodi:namedview
     id="namedview1"
     pagecolor="#ffffff"
     bordercolor="#999999"
     borderopacity="1"
     inkscape:showpageshadow="2"
     inkscape:pageopacity="0"
     inkscape:pagecheckerboard="0"
     inkscape:deskcolor="#d1d1d1"
     inkscape:zoom="1.06"
     inkscape:cx="465.56604"
     inkscape:cy="85.377358"
     inkscape:window-width="1920"
     inkscape:window-height="991"
     inkscape:window-x="-9"
     inkscape:window-y="-9"
     inkscape:window-maximized="1"
     inkscape:current-layer="g1" />
  <g
     inkscape:groupmode="layer"
     inkscape:label="Image"
     id="g1"
     transform="translate(-34.097096,-237.37368)">
    <g
       id="g9"
       style="fill:#000000"
       transform="translate(-4.7169812,-24.528303)">
      <path
         style="fill:#d73832;fill-opacity:1"
         d="m 881.8125,492.31689 c 0.72187,-0.28887 1.58438,-0.25335 1.91667,0.0789 0.33229,0.33229 -0.25834,0.56864 -1.3125,0.52522 -1.16495,-0.048 -1.4019,-0.28494 -0.60417,-0.60416 z M 777.46472,438 c 0,-28.325 0.12803,-39.9125 0.28452,-25.75 0.15649,14.1625 0.15649,37.3375 0,51.5 -0.15649,14.1625 -0.28452,2.575 -0.28452,-25.75 z M 538.07895,389.41667 c 0.048,-1.16495 0.28494,-1.4019 0.60416,-0.60417 0.28887,0.72187 0.25335,1.58438 -0.0789,1.91667 -0.33229,0.33229 -0.56864,-0.25834 -0.52522,-1.3125 z M 151.15789,375 c 0,-1.375 0.22698,-1.9375 0.50439,-1.25 0.27741,0.6875 0.27741,1.8125 0,2.5 -0.27741,0.6875 -0.50439,0.125 -0.50439,-1.25 z M 226,286.4003 v -24.49832 l 17.75,9.22725 c 9.7625,5.07499 20.3142,10.63489 23.44822,12.35534 l 5.69823,3.1281 -7.19823,3.6483 c -3.95902,2.00657 -14.51072,7.47091 -23.44822,12.14297 L 226,310.89861 Z"
         id="path12" />
      <path
         style="fill:#000000;fill-opacity:1"
         d="m 868.15565,494.21044 c -34.77623,-6.62583 -58.33608,-29.39509 -58.34244,-56.38466 l -8.7e-4,-3.70078 22.38305,0.28592 22.38306,0.28592 0.62518,3.12592 c 3.56199,17.80994 49.85179,21.89932 62.0185,5.47891 8.26867,-11.15955 -1.24938,-19.51605 -27.54003,-24.17914 -55.02176,-9.75902 -69.31901,-17.60178 -76.3826,-41.8997 -11.83852,-40.72305 28.74617,-74.25348 84.11052,-69.49078 36.98181,3.18134 60.42541,22.49998 63.88343,52.64295 l 0.717,6.25 H 939.52067 917.0309 l -0.60812,-2.42293 c -5.3106,-21.15909 -57.6087,-19.60306 -57.6087,1.71404 0,8.20451 6.15962,10.94971 37.55217,16.7361 58.08486,10.70642 77.17993,29.5484 69.00948,68.09479 -6.89917,32.54875 -51.00795,52.26813 -97.22008,43.46344 z M 617.81408,442.08559 c 0,-66.87209 1.10369,-76.77482 10.75084,-96.46059 12.54302,-25.59502 35.69121,-38.30887 69.74916,-38.30887 41.103,0 65.7409,18.36744 76.21426,56.81738 l 2.72157,9.99149 c 2.66455,22.99761 0.2817,39.90545 0.33289,59.75 l 0.33289,59.75 h -23.58063 -23.58064 l 0.0933,-26.75 0.0933,-26.75 -33.06347,-0.26348 -33.06348,-0.26348 v 27.01348 27.01348 h -23.5 -23.5 z m 113,-48.91137 c 0,-26.70049 -9.26437,-39.13118 -30.04688,-40.31615 -23.36532,-1.33223 -34.28182,10.44991 -35.68707,38.51693 l -0.56326,11.25 h 33.14861 33.1486 z m -692.000003,9.38613 v -90.06466 l 51.75,0.37243 c 57.769613,0.41575 56.660713,0.29669 71.750003,7.70389 36.67022,18.00109 47.36507,66.25499 22.03842,99.43471 l -3.6049,4.72268 3.46177,4.04431 c 9.31165,10.87856 13.38802,24.46397 14.28301,47.60129 l 0.62858,16.25 h -24.15344 -24.15344 v -17.32186 c 0,-33.44666 -2.56233,-35.67814 -40.96788,-35.67814 H 84.814077 v 26.5 26.5 h -23 -23 z m 102.053243,-1.96251 c 13.20389,-6.73612 15.53608,-27.49454 4.28834,-38.16979 -5.70422,-5.41389 -8.0721,-5.80305 -35.30946,-5.80305 H 84.814077 v 23 23 h 26.039843 c 24.1827,0 26.32323,-0.14458 30.0134,-2.02716 z m 85.9589,13.77716 0.0121,-78.25 22.85289,-11.75 c 12.56913,-6.4625 23.13866,-11.75 23.4879,-11.75 0.34923,0 0.63497,40.5 0.63497,90 v 90 h -23.5 -23.5 z m 78.22029,20 0.34958,-58.25 2.69388,-10 c 9.54074,-35.41623 33.24751,-55.36593 69.41962,-58.41792 25.09833,-2.11764 47.18167,4.38787 62.02315,18.27135 l 6.28134,5.87588 6.36384,-5.95306 c 32.9608,-30.83321 97.87586,-22.64481 120.8347,15.24212 12.2832,20.26985 13.80146,31.23819 13.80146,99.7054 V 492.625 h -23.5 -23.5 l -0.0349,-51.25 c -0.0434,-63.76604 -0.82796,-69.37756 -11.14174,-79.69134 -11.55285,-11.55284 -36.60926,-11.40321 -48.30091,0.28845 -10.6772,10.67719 -11.71689,18.34106 -11.31461,83.40315 l 0.29216,47.25027 -23.75,-2.7e-4 -23.75,-2.6e-4 v -53.7899 c 0,-57.72649 -0.15632,-59.79712 -5.29047,-70.07727 -10.71658,-21.45786 -48.98977,-20.77689 -59.5607,1.05973 -4.7592,9.83119 -5.1129,14.69459 -5.13147,70.55744 l -0.0174,52.25 h -23.55857 -23.55858 z"
         id="path9"
         sodipodi:nodetypes="sscccsssssscccssssssssscccccccccccccsssscccsccssscsscccssccccccssscccssccsssccccccssscssscccsssscccsssscccc" />
    </g>
  </g>
</svg>
